<svg width="37.500000" height="25.000000" viewBox="0 0 37.5 25" fill="none" xmlns="http://www.w3.org/2000/svg" xmlns:xlink="http://www.w3.org/1999/xlink">
	<desc>
			Created with Pixso.
	</desc>
	<defs/>
	<path id="Vector" d="M2.08 25L35.41 25C36.56 25 37.5 24.06 37.5 22.91C37.5 21.77 36.56 20.83 35.41 20.83L2.08 20.83C0.93 20.83 0 21.77 0 22.91C0 24.06 0.93 25 2.08 25ZM2.08 14.58L35.41 14.58C36.56 14.58 37.5 13.64 37.5 12.5C37.5 11.35 36.56 10.41 35.41 10.41L2.08 10.41C0.93 10.41 0 11.35 0 12.5C0 13.64 0.93 14.58 2.08 14.58ZM0 2.08C0 3.22 0.93 4.16 2.08 4.16L35.41 4.16C36.56 4.16 37.5 3.22 37.5 2.08C37.5 0.93 36.56 0 35.41 0L2.08 0C0.93 0 0 0.93 0 2.08Z" fill="#4B5A79" fill-opacity="1.000000" fill-rule="nonzero"/>
</svg>
