<svg width="30.000000" height="30.000000" viewBox="0 0 30 30" fill="none" xmlns="http://www.w3.org/2000/svg" xmlns:xlink="http://www.w3.org/1999/xlink">
	<desc>
			Created with Pixso.
	</desc>
	<defs>
		<clipPath id="clip2056_693">
			<rect id="edit" rx="0.000000" width="29.000000" height="29.000000" transform="translate(0.500000 0.500000)" fill="white" fill-opacity="0"/>
		</clipPath>
	</defs>
	<g clip-path="url(#clip2056_693)">
		<path id="Vector" d="M6.25 23.75L8.03 23.75L20.25 11.53L18.46 9.75L6.25 21.96L6.25 23.75ZM5 26.25C4.64 26.25 4.34 26.13 4.1 25.89C3.87 25.65 3.75 25.35 3.75 25L3.75 21.96C3.75 21.63 3.81 21.31 3.93 21.01C4.06 20.71 4.23 20.44 4.46 20.21L20.25 4.46C20.5 4.24 20.77 4.06 21.07 3.93C21.38 3.81 21.69 3.75 22.03 3.75C22.36 3.75 22.68 3.81 23 3.93C23.31 4.06 23.58 4.25 23.81 4.5L25.53 6.25C25.78 6.47 25.96 6.75 26.07 7.06C26.19 7.37 26.24 7.68 26.25 8C26.25 8.33 26.19 8.65 26.07 8.95C25.96 9.25 25.78 9.53 25.53 9.78L9.78 25.53C9.55 25.75 9.28 25.93 8.98 26.06C8.68 26.18 8.36 26.25 8.03 26.25L5 26.25ZM19.34 10.65L18.46 9.75L20.25 11.53L19.34 10.65Z" fill="#4B5A79" fill-opacity="1.000000" fill-rule="nonzero"/>
	</g>
</svg>
